PathFileType        4      (X/Y/Z)      C:\Users\pc\Desktop\IMUTRC\Sujet_01\Sujet_01_velo_100.trc         
DataRate	CameraRate	NumFrames	NumMarkers	Units	OrigDataRate	OrigDataStartFrame	OrigNumFrames
60.0	60.0	4	64	mm	60.0	747	995
Frame#	Time	pHipOrigin			pRightASI			pLeftASI			pRightCSI			pLeftCSI			pRightIschialTub			pLeftIschialTub			pSacrum			pL5SpinalProcess			pL3SpinalProcess			pT12SpinalProcess			pIJ			pT4SpinalProcess			pT8SpinalProcess			pPX			pC7SpinalProcess			pTopOfHead			pRightAuricularis			pLeftAuricularis			pBackOfHead			pRightAcromion			pLeftAcromion			pRightArmLatEpicondyle			pRightArmMedEpicondyle			pLeftArmLatEpicondyle			pLeftArmMedEpicondyle			pRightUlnarStyloid			pRightRadialStyloid			pRightOlecranon			pLeftUlnarStyloid			pLeftRadialStyloid			pLeftOlecranon			pRightTopOfHand			pRightPinky			pRightBallHand			pLeftTopOfHand			pLeftPinky			pLeftBallHand			pRightGreaterTrochanter			pRightKneeLatEpicondyle			pRightKneeMedEpicondyle			pRightPatella			pLeftGreaterTrochanter			pLeftKneeLatEpicondyle			pLeftKneeMedEpicondyle			pLeftPatella			pRightTibialTub			pRightLatMalleolus			pRightMedMalleolus			pLeftTibialTub			pLeftLatMalleolus			pLeftMedMalleolus			pRightHeelFoot			pRightFirstMetatarsal			pRightFifthMetatarsal			pRightPivotFoot			pRightHeelCenter			pRightToe			pLeftHeelFoot			pLeftFirstMetatarsal			pLeftFifthMetatarsal			pLeftPivotFoot			pLeftHeelCenter			pLeftToe			
		X1	Y1	Z1	X2	Y2	Z2	X3	Y3	Z3	X4	Y4	Z4	X5	Y5	Z5	X6	Y6	Z6	X7	Y7	Z7	X8	Y8	Z8	X9	Y9	Z9	X10	Y10	Z10	X11	Y11	Z11	X12	Y12	Z12	X13	Y13	Z13	X14	Y14	Z14	X15	Y15	Z15	X16	Y16	Z16	X17	Y17	Z17	X18	Y18	Z18	X19	Y19	Z19	X20	Y20	Z20	X21	Y21	Z21	X22	Y22	Z22	X23	Y23	Z23	X24	Y24	Z24	X25	Y25	Z25	X26	Y26	Z26	X27	Y27	Z27	X28	Y28	Z28	X29	Y29	Z29	X30	Y30	Z30	X31	Y31	Z31	X32	Y32	Z32	X33	Y33	Z33	X34	Y34	Z34	X35	Y35	Z35	X36	Y36	Z36	X37	Y37	Z37	X38	Y38	Z38	X39	Y39	Z39	X40	Y40	Z40	X41	Y41	Z41	X42	Y42	Z42	X43	Y43	Z43	X44	Y44	Z44	X45	Y45	Z45	X46	Y46	Z46	X47	Y47	Z47	X48	Y48	Z48	X49	Y49	Z49	X50	Y50	Z50	X51	Y51	Z51	X52	Y52	Z52	X53	Y53	Z53	X54	Y54	Z54	X55	Y55	Z55	X56	Y56	Z56	X57	Y57	Z57	X58	Y58	Z58	X59	Y59	Z59	X60	Y60	Z60	X61	Y61	Z61	X62	Y62	Z62	X63	Y63	Z63	X64	Y64	Z64	
747	12.433	0.0	1250.01138	7.654112177073829E-14	55.208539999999985	1325.65656	137.3697500000001	78.01464000000001	1347.33717	-109.9431899999999	20.140449999999987	1391.52769	117.58471000000009	38.918470000000006	1409.29868	-85.77463999999992	-58.76274000000001	1197.05384	41.58411000000007	-49.403349999999996	1205.99857	-60.065939999999934	-59.94747	1273.52833	-3.4949599999999292	-18.18565	1365.28587	7.0491600000000805	34.89038	1458.58356	18.955720000000092	88.26258	1541.21866	29.618320000000107	320.82559	1569.47453	67.82594000000014	218.46469	1663.36459	52.128240000000126	152.47509	1614.19819	40.991750000000124	233.5108	1498.44981	52.95755000000012	257.73858	1692.21283	58.17037000000013	480.52755	1800.55663	76.47449000000017	400.79504	1746.47359	139.50227000000018	415.78191	1733.20458	9.181680000000158	375.44177	1779.11297	66.58197000000015	227.29094999999998	1647.90383	232.97767000000013	291.68117	1632.56154	-112.60883999999986	292.62895999999995	1430.38692	317.8637600000002	274.5025499999999	1402.96036	275.1541500000002	392.44268	1408.58784	-112.01646999999987	354.05734	1385.60403	-81.92425999999988	392.20572999999996	1269.32252	402.1574900000001	425.14129999999994	1275.89779	373.7831400000001	265.9132399999999	1417.4141	310.69613000000015	542.5483	1271.63275	-118.88791999999985	551.25609	1279.15581	-76.41524999999984	367.80024	1397.0367	-119.24333999999988	555.99502	1218.43826	450.3761000000001	476.32174999999995	1231.23337	455.0558000000001	426.79991999999993	1248.70818	411.9907700000001	701.30247	1250.07062	-34.12029999999984	648.58187	1254.5726	-95.19326999999984	581.05211	1258.36375	-101.59081999999985	-19.725800000000017	1216.18727	144.1819600000001	162.24912999999998	926.34243	193.6445500000001	192.81522999999999	929.06732	133.8155500000001	205.13644999999997	950.09632	176.3474500000001	26.834190000000017	1256.11276	-147.6769199999999	366.31932	1194.74361	-171.60851999999986	375.91566	1192.3149	-105.14501999999989	375.56024	1230.81871	-135.35569999999987	222.07812999999996	896.60564	187.18775000000008	148.68393999999998	524.06647	172.73402000000004	179.36851999999996	524.89579	121.02044000000005	402.39443	1154.64041	-154.37065999999987	215.20668000000003	829.01665	-211.77095999999992	230.37126000000004	815.86612	-155.08149999999992	92.29066999999999	421.11321	72.50564000000004	260.93736	351.51017	111.12792000000006	213.96270999999996	332.13979	183.27814000000006	258.15324	331.192	156.38471000000007	126.35172999999999	400.32115	89.09189000000005	318.10071	302.28453	187.66165000000007	130.20211000000003	714.03835	-156.38470999999993	300.38895	652.0176	-112.07570999999992	294.58376	635.3721	-198.56118999999995	320.64788	634.24661	-153.83752999999993	169.17982000000003	695.26034	-155.37767999999994	389.59932	609.24875	-153.71905999999993	
748	12.45	0.0	1250.01138	7.654112177073829E-14	56.39326999999999	1324.53106	137.4882200000001	78.13312000000002	1347.33717	-109.8247099999999	21.739839999999987	1390.75762	118.23632000000009	39.57007000000001	1409.47639	-85.18227999999992	-58.940450000000006	1197.29078	41.64335000000006	-49.99571999999999	1206.65017	-60.065939999999934	-59.829	1273.94298	-3.021069999999929	-17.35633	1365.28587	7.641530000000082	36.19358	1458.28738	19.666560000000093	89.86197	1540.68553	30.329150000000105	322.60269	1568.34904	68.47755000000014	220.4195	1662.47604	52.66136000000013	154.31142	1613.42811	41.58411000000012	235.11019	1497.56126	53.72762000000012	259.75263	1691.14657	58.64426000000014	482.60083	1799.43113	75.94136000000017	403.10527	1745.58504	139.44303000000016	417.55901	1731.84214	9.181680000000158	377.51505	1777.98747	66.52274000000016	230.19354999999996	1647.19299	233.57004000000015	293.45827	1631.08063	-112.13493999999986	294.2283499999999	1429.43914	318.51536000000016	275.8649899999999	1402.13105	275.86499000000015	393.39047	1406.75151	-111.06867999999987	355.1236	1384.00464	-80.68028999999987	392.7980999999999	1267.84161	403.0460400000001	425.7928999999999	1274.17993	374.6716900000001	267.45338999999996	1416.64403	311.3477300000002	543.1999	1269.50023	-117.52547999999986	551.90769	1277.08252	-75.11204999999984	368.80726	1395.31884	-118.17707999999988	556.23196	1215.83185	451.2054200000001	476.61792999999994	1229.10085	455.8851100000001	427.27381999999994	1246.93108	412.7608400000001	701.95407	1247.52344	-32.87632999999984	649.23347	1252.1439	-93.94929999999984	581.70371	1256.11276	-100.28761999999986	-18.718780000000017	1216.18727	144.4189100000001	157.56943999999996	922.37358	191.03813000000008	187.01003999999998	924.32839	130.67601000000008	200.57522999999998	945.12044	172.9117300000001	26.95267000000002	1258.24527	-147.5584499999999	368.03719	1205.93933	-169.89065999999985	377.15963	1202.50361	-103.36791999999988	376.09337	1241.59978	-132.92699999999985	215.56209999999996	889.97114	182.50806000000009	125.52241999999998	521.5193	159.93890000000005	155.61463	522.28937	107.86990000000004	406.89642	1167.31705	-151.76424999999986	243.16637000000003	828.54275	-204.3663799999999	258.7456	817.46551	-147.3214999999999	64.09402999999999	422.41641	59.71052000000004	229.36423	345.05337	98.15510000000005	181.61950999999996	327.81551	170.30531000000005	225.69155999999998	324.79445	143.41188000000005	97.20730999999999	400.02497	76.29678000000004	284.27659	293.04361	174.57035000000005	166.45493000000002	708.11468	-144.83355999999992	341.20299	659.89607	-100.93921999999992	335.75322	640.46645	-186.83232999999996	362.232	642.4805	-142.40485999999993	206.67660000000004	692.2985	-143.82653999999994	433.01977	622.34004	-142.3456199999999	
749	12.467	0.0	1250.01138	7.654112177073829E-14	57.104109999999984	1323.64252	137.72517000000008	79.08090000000001	1346.92251	-109.5877699999999	23.102289999999986	1390.16525	118.59173000000008	41.110220000000005	1409.35792	-84.70837999999992	-59.41434000000001	1197.70544	41.465640000000064	-50.41036999999999	1207.30177	-60.18441999999994	-59.59205	1274.53535	-2.961829999999929	-16.29007	1365.3451	7.937710000000082	37.91144	1457.93196	20.08122000000009	91.99449	1539.97469	30.803050000000106	324.73521	1566.74965	69.66228000000014	222.96668	1661.29131	53.37220000000013	156.68089	1612.42109	42.17648000000012	237.00576	1496.25806	54.79388000000012	262.35904	1689.78413	59.414340000000145	485.32572	1797.77251	76.00060000000018	406.0671	1744.10412	139.97616000000016	419.92848	1730.06504	9.655570000000159	380.1807	1776.32885	67.11510000000015	232.97766999999996	1645.41589	234.39935000000014	296.71628	1628.35574	-111.00944999999986	295.8277299999999	1428.0767	320.0555200000002	277.10895999999997	1400.65014	277.52362000000016	396.05611	1404.73746	-110.06165999999988	357.61154	1381.93136	-79.85097999999988	393.62740999999994	1265.76833	404.17153000000013	426.6814499999999	1272.04741	375.8564200000001	268.87506999999994	1415.28158	312.94712000000015	545.62861	1267.13077	-116.10379999999986	554.21792	1274.65382	-73.69036999999986	371.41368	1393.30479	-117.28852999999987	556.76509	1212.63307	452.0939700000001	477.2695299999999	1226.31673	456.8329000000001	427.98465999999996	1244.62085	413.8271000000001	704.08659	1244.68009	-31.15846999999984	651.48447	1249.47825	-92.34990999999984	584.01394	1253.62482	-98.86593999999985	-17.53404000000002	1216.77963	144.9520400000001	159.10958999999997	923.08442	191.1566100000001	187.30622999999997	924.26915	130.14288000000008	201.81919999999997	945.5351	171.8454700000001	27.54503000000002	1259.19306	-147.3214999999999	368.74803	1206.65017	-167.63966999999985	377.33734	1202.38513	-101.11692999999988	376.50803	1241.83673	-130.20210999999986	214.96972999999997	887.24626	180.02012000000008	103.90104999999998	525.36968	147.43997000000002	132.98624	526.19899	94.77861000000004	410.39138	1169.27186	-148.74317999999985	266.9795	820.84199	-198.0872899999999	282.55873	811.54184	-140.7462299999999	37.25983999999999	430.23565	48.04091000000003	199.03508	345.76421	86.24853000000004	150.87569999999997	331.01429	158.63570000000007	194.71080999999998	325.91994	131.56456000000006	69.36608999999999	406.48176	64.56793000000005	251.93338999999997	291.74041	162.72302000000005	198.50195000000002	696.5043	-134.05249999999992	376.33032	662.14706	-89.62501999999992	371.9468	639.5779	-174.8072999999999	398.42558	644.84996	-130.61676999999992	239.73064000000002	683.59072	-132.74928999999995	470.27961	629.80386	-130.43905999999993	
750	12.483	0.0	1250.01138	7.654112177073829E-14	57.40029999999999	1322.87244	138.0213500000001	80.68029000000001	1346.03396	-109.1731099999999	24.227779999999985	1389.80983	118.82868000000009	43.36121000000001	1408.88403	-84.41219999999991	-60.18442000000001	1198.35704	41.169460000000065	-50.64731999999999	1207.89414	-60.421359999999936	-59.29587	1275.24619	-3.198779999999929	-14.986870000000001	1365.46358	7.878470000000082	39.86625	1457.57654	20.258930000000092	94.48243	1539.20461	31.217700000000107	327.16391	1564.85408	71.20243000000015	225.92851	1659.81039	54.26075000000013	159.52425	1611.23636	42.82808000000012	239.19752	1494.7179	56.03785000000012	265.38011	1688.1255	60.53984000000014	488.58373	1795.52152	76.53373000000018	409.50283	1742.03084	140.98318000000017	422.77183	1727.87328	10.603360000000158	383.32024	1774.3148	68.18136000000015	235.82102999999998	1642.92796	235.46561000000014	300.86285	1624.92002	-109.46928999999986	297.5455999999999	1426.35883	321.89185000000015	278.47139999999996	1398.8138	279.6561300000002	399.78802	1402.60494	-108.93615999999987	361.1065	1379.62113	-79.25860999999988	394.87137999999993	1263.28039	405.4155000000001	427.9254199999999	1269.55947	377.0411600000001	270.4152199999999	1413.50448	314.96117000000015	549.00509	1264.52436	-114.80058999999986	557.4167	1271.92894	-72.32792999999985	375.14558	1391.11304	-116.39997999999987	557.71288	1208.84192	452.9232800000001	478.27655999999996	1223.05872	457.78068000000013	429.05091999999996	1241.89596	414.95260000000013	707.1669	1241.54054	-29.44060999999984	654.74248	1246.57566	-90.75051999999984	587.27196	1250.89993	-97.44425999999986	-16.112360000000017	1217.90513	145.6036400000001	165.86256999999998	927.76411	193.46684000000008	192.63751999999997	928.17877	131.8015000000001	207.74285999999998	950.45174	172.73402000000007	28.492820000000016	1259.2523	-147.1437899999999	368.51108	1198.83093	-165.44790999999987	376.50803	1193.79582	-98.86593999999988	376.86345	1233.48436	-127.59569999999988	218.76087999999996	888.54946	179.36852000000007	83.40517999999999	536.15075	136.06654000000003	111.18715999999999	537.15777	82.75357000000004	412.5239	1162.81506	-145.60363999999987	288.71934	806.56596	-191.8674499999999	304.12086	798.80597	-134.23020999999991	11.610379999999994	443.86007	37.496790000000026	169.94989	352.99108	75.34899000000004	121.61279999999998	340.78834	148.15081000000006	165.03324999999998	333.6207	120.90196000000003	42.76884999999999	418.92145	54.02381000000003	220.95262999999997	297.36789	152.00119000000007	228.23874000000004	679.56263	-123.33066999999993	407.96268	658.6521	-77.9554099999999	405.11932	632.88416	-162.3083699999999	431.18344	641.47347	-118.4140199999999	270.29675	669.43316	-121.61279999999992	503.74831	631.40325	-117.8216599999999	
